<svg width="32" height="32" viewBox="0 0 32 32" fill="none" xmlns="http://www.w3.org/2000/svg">
<path d="M27 4H5C2.79086 4 1 5.79086 1 8V24C1 26.2091 2.79086 28 5 28H27C29.2091 28 31 26.2091 31 24V8C31 5.79086 29.2091 4 27 4Z" fill="white"/>
<path d="M1.638 5.846H30.362C29.651 4.738 28.415 4 27 4H5C3.586 4 2.35 4.738 1.638 5.846Z" fill="#A62842"/>
<path d="M2.03 7.69202C2.022 7.79502 2 7.89402 2 8.00002V9.53902H31V8.00002C31 7.89502 30.978 7.79602 30.97 7.69202H2.03Z" fill="#A62842"/>
<path d="M2 11.385H31V13.231H2V11.385Z" fill="#A62842"/>
<path d="M2 15.077H31V16.923H2V15.077Z" fill="#A62842"/>
<path d="M1 18.769H31V20.615H1V18.769Z" fill="#A62842"/>
<path d="M1 24.0001C1 24.1051 1.023 24.2041 1.031 24.3081H30.969C30.977 24.2051 31 24.1061 31 24.0001V22.4611H1V24.0001Z" fill="#A62842"/>
<path d="M30.362 26.1541H1.638C2.349 27.2621 3.585 28.0001 5 28.0001H27C28.414 28.0001 29.65 27.2621 30.362 26.1541Z" fill="#A62842"/>
<path d="M5 4H16V16.923H1V8C1 5.792 2.792 4 5 4Z" fill="#102D5E"/>
<path opacity="0.15" d="M27 4H5C2.791 4 1 5.791 1 8V24C1 26.209 2.791 28 5 28H27C29.209 28 31 26.209 31 24V8C31 5.791 29.209 4 27 4ZM30 24C30 25.654 28.654 27 27 27H5C3.346 27 2 25.654 2 24V8C2 6.346 3.346 5 5 5H27C28.654 5 30 6.346 30 8V24Z" fill="black"/>
<path opacity="0.2" d="M27 5H5C3.343 5 2 6.343 2 8V9C2 7.343 3.343 6 5 6H27C28.657 6 30 7.343 30 9V8C30 6.343 28.657 5 27 5Z" fill="white"/>
<path d="M4.601 7.46301L5.193 7.03301H4.462L4.236 6.33801L4.01 7.03301H3.279L3.87 7.46301L3.644 8.15801L4.236 7.72901L4.827 8.15801L4.601 7.46301Z" fill="white"/>
<path d="M7.58 7.46301L8.172 7.03301H7.441L7.215 6.33801L6.989 7.03301H6.258L6.849 7.46301L6.623 8.15801L7.215 7.72901L7.806 8.15801L7.58 7.46301Z" fill="white"/>
<path d="M10.56 7.46301L11.151 7.03301H10.42L10.194 6.33801L9.968 7.03301H9.237L9.828 7.46301L9.603 8.15801L10.194 7.72901L10.785 8.15801L10.56 7.46301Z" fill="white"/>
<path d="M6.066 9.28296L6.658 8.85396H5.927L5.701 8.15796L5.475 8.85396H4.744L5.335 9.28296L5.109 9.97896L5.701 9.54896L6.292 9.97896L6.066 9.28296Z" fill="white"/>
<path d="M9.046 9.28296L9.637 8.85396H8.906L8.68 8.15796L8.454 8.85396H7.723L8.314 9.28296L8.089 9.97896L8.68 9.54896L9.271 9.97896L9.046 9.28296Z" fill="white"/>
<path d="M12.025 9.28296L12.616 8.85396H11.885L11.659 8.15796L11.433 8.85396H10.702L11.294 9.28296L11.068 9.97896L11.659 9.54896L12.251 9.97896L12.025 9.28296Z" fill="white"/>
<path d="M6.066 12.924L6.658 12.494H5.927L5.701 11.799L5.475 12.494H4.744L5.335 12.924L5.109 13.619L5.701 13.1899L6.292 13.619L6.066 12.924Z" fill="white"/>
<path d="M9.046 12.924L9.637 12.494H8.906L8.68 11.799L8.454 12.494H7.723L8.314 12.924L8.089 13.619L8.68 13.1899L9.271 13.619L9.046 12.924Z" fill="white"/>
<path d="M12.025 12.924L12.616 12.494H11.885L11.659 11.799L11.433 12.494H10.702L11.294 12.924L11.068 13.619L11.659 13.1899L12.251 13.619L12.025 12.924Z" fill="white"/>
<path d="M13.539 7.46301L14.13 7.03301H13.399L13.173 6.33801L12.947 7.03301H12.216L12.808 7.46301L12.582 8.15801L13.173 7.72901L13.765 8.15801L13.539 7.46301Z" fill="white"/>
<path d="M4.601 11.104L5.193 10.674H4.462L4.236 9.979L4.01 10.674H3.279L3.87 11.104L3.644 11.799L4.236 11.369L4.827 11.799L4.601 11.104Z" fill="white"/>
<path d="M7.58 11.104L8.172 10.674H7.441L7.215 9.979L6.989 10.674H6.258L6.849 11.104L6.623 11.799L7.215 11.369L7.806 11.799L7.58 11.104Z" fill="white"/>
<path d="M10.56 11.104L11.151 10.674H10.42L10.194 9.979L9.968 10.674H9.237L9.828 11.104L9.603 11.799L10.194 11.369L10.785 11.799L10.56 11.104Z" fill="white"/>
<path d="M13.539 11.104L14.13 10.674H13.399L13.173 9.979L12.947 10.674H12.216L12.808 11.104L12.582 11.799L13.173 11.369L13.765 11.799L13.539 11.104Z" fill="white"/>
<path d="M4.601 14.744L5.193 14.315H4.462L4.236 13.619L4.01 14.315H3.279L3.87 14.744L3.644 15.44L4.236 15.01L4.827 15.44L4.601 14.744Z" fill="white"/>
<path d="M7.58 14.744L8.172 14.315H7.441L7.215 13.619L6.989 14.315H6.258L6.849 14.744L6.623 15.44L7.215 15.01L7.806 15.44L7.58 14.744Z" fill="white"/>
<path d="M10.56 14.744L11.151 14.315H10.42L10.194 13.619L9.968 14.315H9.237L9.828 14.744L9.603 15.44L10.194 15.01L10.785 15.44L10.56 14.744Z" fill="white"/>
<path d="M13.539 14.744L14.13 14.315H13.399L13.173 13.619L12.947 14.315H12.216L12.808 14.744L12.582 15.44L13.173 15.01L13.765 15.44L13.539 14.744Z" fill="white"/>
</svg>
