<?xml version="1.0" encoding="UTF-8" standalone="no"?>
<!-- Created with Inkscape (http://www.inkscape.org/) -->

<svg
   version="1.1"
   id="svg870"
   xml:space="preserve"
   width="297.55127"
   height="440.93884"
   viewBox="0 0 297.55126 440.93885"
   sodipodi:docname="placa.svg"
   inkscape:version="1.1.2 (0a00cf5339, 2022-02-04)"
   xmlns:inkscape="http://www.inkscape.org/namespaces/inkscape"
   xmlns:sodipodi="http://sodipodi.sourceforge.net/DTD/sodipodi-0.dtd"
   xmlns="http://www.w3.org/2000/svg"
   xmlns:svg="http://www.w3.org/2000/svg"><defs
     id="defs874" /><sodipodi:namedview
     id="namedview872"
     pagecolor="#ffffff"
     bordercolor="#666666"
     borderopacity="1.0"
     inkscape:pageshadow="2"
     inkscape:pageopacity="0.0"
     inkscape:pagecheckerboard="0"
     showgrid="false"
     fit-margin-top="0"
     fit-margin-left="0"
     fit-margin-right="0"
     fit-margin-bottom="0"
     inkscape:zoom="1.4075729"
     inkscape:cx="245.45799"
     inkscape:cy="260.73251"
     inkscape:window-width="1920"
     inkscape:window-height="1007"
     inkscape:window-x="0"
     inkscape:window-y="0"
     inkscape:window-maximized="1"
     inkscape:current-layer="g876" /><g
     id="g876"
     inkscape:groupmode="layer"
     inkscape:label="ink_ext_XXXXXX"
     transform="matrix(1.3333333,0,0,-1.3333333,-19.478966,566.92879)"><g
       id="g878"
       transform="matrix(0.1,0,0,0.1,5.4346839e-7,-2.5720521)"><g
         id="g1940"
         transform="translate(3.1855242e-5,-2.4145617e-5)"><path
           d="m 1318.75,1019.81 c -31.27,-31.259 -82.42,-31.259 -113.67,0 l -891.767,891.77 c -31.282,31.27 -31.282,82.41 0,113.67 l 891.767,891.78 c 31.25,31.27 82.4,31.27 113.67,0 l 891.78,-891.78 c 31.25,-31.26 31.25,-82.4 0,-113.67 l -891.78,-891.77"
           style="fill:#faba14;fill-opacity:1;fill-rule:nonzero;stroke:none"
           id="path882" /><path
           d="m 1245.85,2938.83 c -14.97,-3.01 -29.24,-10.26 -40.77,-21.8 L 313.313,2025.25 c -31.282,-31.26 -31.282,-82.4 0,-113.67 l 891.767,-891.77 c 11.53,-11.54 25.8,-18.8 40.77,-21.81 v 1940.83"
           style="fill:#f8a118;fill-opacity:1;fill-rule:nonzero;stroke:none"
           id="path884" /><path
           d="m 1311.72,1137.07 -17.05,17.03 c -9,-8.99 -20.75,-13.46 -32.76,-13.48 -12.01,0.02 -23.78,4.49 -32.78,13.49 l -781.532,781.53 c -9,9.01 -13.469,20.77 -13.493,32.78 0.024,12.01 4.493,23.77 13.493,32.78 l 784.372,784.38 -2.85,-2.85 c 9.01,9 20.78,13.47 32.79,13.49 12.02,-0.02 23.77,-4.49 32.77,-13.48 L 2076.2,2001.2 c 9.01,-9.02 13.48,-20.77 13.51,-32.78 -0.03,-12.01 -4.5,-23.76 -13.51,-32.77 l -781.52,-781.54 17.04,-17.04 17.04,-17.04 781.52,781.53 c 18.41,18.39 27.65,42.75 27.63,66.86 0.02,24.11 -9.22,48.47 -27.63,66.87 l -781.52,781.53 c -18.39,18.4 -42.75,27.62 -66.85,27.6 -24.1,0.02 -48.45,-9.2 -66.85,-27.59 L 413.512,2035.28 c -18.403,-18.39 -27.633,-42.75 -27.61,-66.86 -0.023,-24.1 9.203,-48.47 27.614,-66.86 l 781.534,-781.53 c 18.39,-18.41 42.76,-27.64 66.86,-27.61 24.11,-0.03 48.46,9.2 66.85,27.61 l -17.04,17.04"
           style="fill:#29242c;fill-opacity:1;fill-rule:nonzero;stroke:none"
           id="path886" /><path
           d="m 1587.26,2450.39 c 0,0 -74.92,-69.75 -95.79,-73.76 -34.44,-6.63 -79.09,39.17 -75.23,80.95 2.33,25.24 73.63,90.19 73.63,90.19 -11.18,3.58 -23.31,5.26 -34.9,6.19 -43.03,3.48 -109.22,-79.94 -115.44,-125.9 -4.81,-35.45 -0.75,-63.85 32.27,-96.9 32.47,-32.45 65.81,-37.84 97.26,-32.33 42.45,7.41 129.29,72.22 126.16,114.88 -0.91,12.6 -3.91,24.58 -7.96,36.68"
           style="fill:#29242c;fill-opacity:1;fill-rule:nonzero;stroke:none"
           id="path888" /><path
           d="m 996.367,2052.73 c 0,0 74.903,69.75 95.803,73.76 34.43,6.63 79.07,-39.17 75.21,-80.95 -2.32,-25.25 -73.63,-90.2 -73.63,-90.2 11.19,-3.58 23.3,-5.26 34.9,-6.18 43.03,-3.48 109.24,79.93 115.46,125.9 4.81,35.44 0.75,63.85 -32.29,96.9 -32.47,32.45 -65.79,37.83 -97.25,32.34 -42.46,-7.42 -129.297,-72.22 -126.164,-114.89 0.91,-12.6 3.918,-24.58 7.961,-36.68"
           style="fill:#29242c;fill-opacity:1;fill-rule:nonzero;stroke:none"
           id="path890" /><path
           d="m 1145.74,2185.09 79.99,-80.01 224.74,224.72 -80.02,80 -224.71,-224.71"
           style="fill:#29242c;fill-opacity:1;fill-rule:nonzero;stroke:none"
           id="path892" /><path
           d="m 1282.91,2188.61 169.4,-169.39 c 18.04,-18.04 47.29,-18.04 65.32,0 l 28.57,28.57 c 18.04,18.03 18.04,47.27 0,65.31 l -169.41,169.41 -93.88,-93.9"
           style="fill:#29242c;fill-opacity:1;fill-rule:nonzero;stroke:none"
           id="path894" /><path
           d="m 1376.4,2295.24 c 6.9,-6.89 6.9,-18.07 0,-24.96 l -81.26,-81.26 c -6.9,-6.89 -18.08,-6.89 -24.96,0 -6.9,6.9 -6.9,18.08 0,24.97 l 81.27,81.25 c 6.89,6.89 18.05,6.89 24.95,0"
           style="fill:#29242c;fill-opacity:1;fill-rule:nonzero;stroke:none"
           id="path896" /><path
           d="m 1337.24,2256.08 -27.9,-27.9 -203.43,203.43 27.92,27.89 203.41,-203.42"
           style="fill:#29242c;fill-opacity:1;fill-rule:nonzero;stroke:none"
           id="path898" /><path
           d="m 1039.24,2554.08 -27.88,-27.9 42.17,-66.68 52.38,-27.89 27.92,27.89 -27.92,52.38 -66.67,42.2"
           style="fill:#29242c;fill-opacity:1;fill-rule:nonzero;stroke:none"
           id="path900" /><path
           d="m 1009.03,1730.44 c -13.007,10.71 -20.905,26.77 -21.159,47.68 h 55.329 c 0.26,-16.83 15.04,-20.65 23.71,-18.61 5.1,1.27 8.67,5.1 8.67,9.94 0,4.59 -3.31,10.2 -14.03,15.56 -6.88,3.56 -16.82,6.88 -29.57,9.68 -11.98,3.06 -22.44,7.65 -30.34,14.54 -10.71,9.18 -16.574,22.69 -15.812,41.81 1.274,33.91 37.232,49.46 68.082,49.46 52.78,0 72.41,-22.94 74.45,-55.83 h -51.76 c -0.25,13 -12.75,17.08 -21.93,16.06 -7.14,-0.76 -13,-4.34 -13,-10.97 0,-6.63 6.63,-10.45 25.75,-14.53 35.19,-7.14 71.13,-26 71.13,-61.19 0,-40.8 -34.93,-59.92 -78.77,-59.92 -18.62,0 -37.23,5.35 -50.75,16.32"
           style="fill:#29242c;fill-opacity:1;fill-rule:nonzero;stroke:none"
           id="path902" /><path
           d="m 1161.24,1718.45 v 178.23 h 61.46 v -178.23 h -61.46"
           style="fill:#29242c;fill-opacity:1;fill-rule:nonzero;stroke:none"
           id="path904" /><path
           d="M 1283.36,1718.45 V 1849 h -34.68 v 47.68 h 131.07 V 1849 h -34.68 v -130.55 h -61.71"
           style="fill:#29242c;fill-opacity:1;fill-rule:nonzero;stroke:none"
           id="path906" /><path
           d="m 1404.73,1718.45 v 178.23 H 1531.2 V 1849 h -65.54 v -20.65 h 58.14 v -42.84 h -58.14 v -20.14 h 65.54 v -46.92 h -126.47"
           style="fill:#29242c;fill-opacity:1;fill-rule:nonzero;stroke:none"
           id="path908" /><path
           d="m 981.941,1605.41 v 78.65 h 40.329 v -80.99 c 0,-9.82 18.82,-9.82 18.82,0 v 80.99 h 40.49 v -78.65 c 0,-24.33 -21.49,-40.66 -49.65,-40.66 -29.32,0 -49.989,16.33 -49.989,40.66"
           style="fill:#29242c;fill-opacity:1;fill-rule:nonzero;stroke:none"
           id="path910" /><path
           d="m 1099.61,1567.58 v 116.48 h 37.32 l 27.33,-53.65 v 53.65 h 39.16 v -116.48 h -38.16 l -27.15,53.33 v -53.33 h -38.5"
           style="fill:#29242c;fill-opacity:1;fill-rule:nonzero;stroke:none"
           id="path912" /><path
           d="m 1260.6,1598.58 c 15.99,-2.17 24.32,11.5 24.32,28.16 0,16.16 -8.33,28.33 -24.32,25.33 z m -39.33,-31 v 116.48 h 43.65 c 43.17,0 59.66,-28.16 59.66,-57.32 0,-34.5 -18,-59.16 -62.16,-59.16 h -41.15"
           style="fill:#29242c;fill-opacity:1;fill-rule:nonzero;stroke:none"
           id="path914" /><path
           d="m 1340.27,1567.58 v 116.48 h 82.65 v -31.16 h -42.82 v -13.5 h 37.99 v -28 h -37.99 v -13.16 h 42.82 v -30.66 h -82.65"
           style="fill:#29242c;fill-opacity:1;fill-rule:nonzero;stroke:none"
           id="path916" /><path
           d="m 1478.42,1638.41 c 7.33,-0.68 19.83,-1.51 19.83,8.99 0,10.17 -11.16,9.16 -19.83,8.66 z m -38.32,-70.83 v 116.48 h 51.65 c 26.66,0 42.65,-13.5 42.65,-35.66 0,-11.66 -5.99,-22.49 -18.15,-27.83 l 23.99,-52.99 h -43.99 l -17.83,47.99 v -47.99 h -38.32"
           style="fill:#29242c;fill-opacity:1;fill-rule:nonzero;stroke:none"
           id="path918" /><path
           d="m 1021.41,1497.93 6.37,-3.56 c -1.43,-5.45 -4.32,-9.68 -8.69,-12.66 -4.35,-3 -9.36,-4.5 -15.03,-4.5 -7.419,0 -13.369,2.41 -17.861,7.22 -4.48,4.82 -6.726,10.77 -6.726,17.87 0,7.78 2.257,13.97 6.765,18.57 4.516,4.61 10.395,6.9 17.652,6.9 6.41,0 11.8,-1.75 16.18,-5.24 v 4.47 h 6.34 v -15.75 h -6.34 c -1.42,3.19 -3.59,5.66 -6.53,7.42 -2.93,1.75 -6.02,2.63 -9.26,2.63 -4.885,0 -8.897,-1.77 -12.034,-5.3 -3.137,-3.52 -4.707,-7.97 -4.707,-13.35 0,-5.52 1.68,-10.03 5.039,-13.53 3.36,-3.5 7.344,-5.25 11.942,-5.25 3.79,0 7.23,1.21 10.33,3.65 3.1,2.43 5.29,5.9 6.56,10.41"
           style="fill:#29242c;fill-opacity:1;fill-rule:nonzero;stroke:none"
           id="path920" /><path
           d="m 1042.89,1502.68 c 0,-5.38 1.57,-9.88 4.73,-13.52 3.14,-3.65 7.27,-5.46 12.4,-5.46 5.08,0 9.24,1.85 12.51,5.57 3.26,3.73 4.89,8.18 4.89,13.34 0,5.22 -1.66,9.63 -4.98,13.24 -3.33,3.6 -7.5,5.41 -12.53,5.41 -5,0 -9.09,-1.78 -12.26,-5.33 -3.17,-3.54 -4.76,-7.95 -4.76,-13.25 z m -8.07,0.04 c 0,7.12 2.33,13.08 6.98,17.86 4.66,4.8 10.71,7.19 18.18,7.19 7.54,0 13.68,-2.39 18.43,-7.19 4.74,-4.78 7.12,-10.79 7.12,-18 0,-7.35 -2.41,-13.42 -7.24,-18.2 -4.83,-4.78 -10.97,-7.17 -18.42,-7.17 -4.73,0 -9.1,1.14 -13.08,3.4 -3.99,2.27 -6.98,5.42 -8.97,9.47 -2,4.06 -3,8.28 -3,12.64"
           style="fill:#29242c;fill-opacity:1;fill-rule:nonzero;stroke:none"
           id="path922" /><path
           d="m 1096.46,1484.12 v 36.75 h -7.02 v 6.13 h 16.73 l 21.51,-38.1 v 31.97 h -6.95 v 6.13 h 20.12 v -6.13 h -7.22 v -43.38 h -7.59 l -23.52,41.83 v -35.2 h 7.01 v -6.13 h -20.09 v 6.13 h 7.02"
           style="fill:#29242c;fill-opacity:1;fill-rule:nonzero;stroke:none"
           id="path924" /><path
           d="m 1143.5,1477.99 v 17.79 h 6.13 v -4.34 c 2.94,-5.33 6.78,-8 11.52,-8 2.42,0 4.47,0.75 6.14,2.23 1.67,1.48 2.5,3.42 2.5,5.81 0,2.33 -0.69,4 -2.05,5.02 -1.36,1.03 -3.93,2.04 -7.72,3.05 -4.39,1.17 -7.65,2.28 -9.76,3.33 -2.12,1.04 -3.8,2.54 -5.05,4.47 -1.26,1.94 -1.89,4.24 -1.89,6.9 0,4.11 1.37,7.39 4.11,9.84 2.74,2.46 6.17,3.68 10.3,3.68 3.93,0 7.56,-1.26 10.92,-3.8 v 3.27 h 6 v -14.86 h -6 v 3.42 c -2.51,3.78 -5.97,5.67 -10.39,5.67 -2.67,0 -4.73,-0.62 -6.16,-1.85 -1.44,-1.23 -2.16,-2.71 -2.16,-4.43 0,-1.31 0.37,-2.47 1.1,-3.46 0.73,-1 1.66,-1.74 2.78,-2.21 1.13,-0.47 3.35,-1.12 6.66,-1.96 4.32,-1.13 7.46,-2.18 9.41,-3.16 1.95,-0.98 3.63,-2.6 5.04,-4.88 1.41,-2.28 2.11,-4.89 2.11,-7.86 0,-4.18 -1.47,-7.64 -4.42,-10.36 -2.95,-2.73 -6.59,-4.09 -10.94,-4.09 -4.46,0 -8.48,1.61 -12.05,4.83 v -4.05 h -6.13"
           style="fill:#29242c;fill-opacity:1;fill-rule:nonzero;stroke:none"
           id="path926" /><path
           d="m 1196.32,1484.12 v 36.75 h -10.12 v -12.51 h -6.05 V 1527 h 39.7 v -18.64 h -6.06 v 12.51 h -10.07 v -36.75 h 6.38 v -6.13 h -20.05 v 6.13 h 6.27"
           style="fill:#29242c;fill-opacity:1;fill-rule:nonzero;stroke:none"
           id="path928" /><path
           d="m 1235.71,1507.02 h 5.77 c 2.81,0 4.87,0.18 6.2,0.55 1.32,0.36 2.41,1.1 3.25,2.21 0.85,1.13 1.27,2.62 1.27,4.49 0,1.61 -0.43,2.95 -1.28,4.06 -0.86,1.1 -1.92,1.8 -3.18,2.1 -1.26,0.29 -3.17,0.44 -5.76,0.44 h -6.27 z m -7.4,-22.9 v 36.75 h -6.73 v 6.13 h 19.9 c 4.16,0 7.47,-0.32 9.91,-0.97 2.45,-0.64 4.46,-2.01 6.06,-4.09 1.6,-2.08 2.39,-4.67 2.39,-7.76 0,-6.49 -3.37,-10.56 -10.09,-12.23 l 8.65,-17.83 h 5.99 v -6.13 h -10.61 l -11.16,22.9 h -6.91 v -16.77 h 6.27 v -6.13 h -20.4 v 6.13 h 6.73"
           style="fill:#29242c;fill-opacity:1;fill-rule:nonzero;stroke:none"
           id="path930" /><path
           d="m 1278.67,1520.87 v -24.53 c 0,-3.8 0.2,-6.43 0.58,-7.89 0.39,-1.46 1.36,-2.69 2.91,-3.72 1.55,-1.02 3.54,-1.53 5.98,-1.53 2.92,0 5.15,0.44 6.7,1.32 1.56,0.89 2.58,2.07 3.09,3.56 0.5,1.49 0.75,4.12 0.75,7.91 v 24.88 h -5.67 v 6.13 h 19.17 v -6.13 h -6.14 v -25.62 c 0,-3.46 -0.14,-5.96 -0.43,-7.52 -0.3,-1.56 -1.09,-3.19 -2.38,-4.9 -1.3,-1.7 -3.11,-3.07 -5.47,-4.08 -2.34,-1.03 -5.19,-1.54 -8.55,-1.54 -3.71,0 -6.81,0.47 -9.27,1.43 -2.47,0.95 -4.32,2.23 -5.56,3.82 -1.25,1.6 -2.09,3.3 -2.5,5.11 -0.41,1.81 -0.61,4.61 -0.61,8.42 v 24.88 h -6.06 v 6.13 h 19.27 v -6.13 h -5.81"
           style="fill:#29242c;fill-opacity:1;fill-rule:nonzero;stroke:none"
           id="path932" /><path
           d="m 1358.1,1497.93 6.37,-3.56 c -1.43,-5.45 -4.32,-9.68 -8.69,-12.66 -4.35,-3 -9.36,-4.5 -15.03,-4.5 -7.42,0 -13.37,2.41 -17.86,7.22 -4.48,4.82 -6.73,10.77 -6.73,17.87 0,7.78 2.26,13.97 6.77,18.57 4.51,4.61 10.39,6.9 17.65,6.9 6.41,0 11.8,-1.75 16.18,-5.24 v 4.47 h 6.34 v -15.75 h -6.34 c -1.42,3.19 -3.59,5.66 -6.53,7.42 -2.94,1.75 -6.02,2.63 -9.26,2.63 -4.89,0 -8.9,-1.77 -12.03,-5.3 -3.14,-3.52 -4.71,-7.97 -4.71,-13.35 0,-5.52 1.68,-10.03 5.04,-13.53 3.36,-3.5 7.34,-5.25 11.94,-5.25 3.79,0 7.23,1.21 10.33,3.65 3.1,2.43 5.29,5.9 6.56,10.41"
           style="fill:#29242c;fill-opacity:1;fill-rule:nonzero;stroke:none"
           id="path934" /><path
           d="m 1384.94,1484.12 v 36.75 h -10.12 v -12.51 h -6.05 V 1527 h 39.71 v -18.64 h -6.07 v 12.51 h -10.07 v -36.75 h 6.38 v -6.13 h -20.05 v 6.13 h 6.27"
           style="fill:#29242c;fill-opacity:1;fill-rule:nonzero;stroke:none"
           id="path936" /><path
           d="m 1416.87,1484.12 v 36.75 h -5.29 v 6.13 h 17.97 v -6.13 h -5.29 v -36.75 h 5.29 v -6.13 h -17.97 v 6.13 h 5.29"
           style="fill:#29242c;fill-opacity:1;fill-rule:nonzero;stroke:none"
           id="path938" /><path
           d="m 1443.54,1502.68 c 0,-5.38 1.57,-9.88 4.72,-13.52 3.15,-3.65 7.28,-5.46 12.4,-5.46 5.08,0 9.24,1.85 12.51,5.57 3.27,3.73 4.9,8.18 4.9,13.34 0,5.22 -1.66,9.63 -4.98,13.24 -3.33,3.6 -7.5,5.41 -12.53,5.41 -5,0 -9.1,-1.78 -12.27,-5.33 -3.16,-3.54 -4.75,-7.95 -4.75,-13.25 z m -8.07,0.04 c 0,7.12 2.32,13.08 6.97,17.86 4.66,4.8 10.71,7.19 18.19,7.19 7.53,0 13.68,-2.39 18.42,-7.19 4.75,-4.78 7.12,-10.79 7.12,-18 0,-7.35 -2.41,-13.42 -7.23,-18.2 -4.84,-4.78 -10.97,-7.17 -18.42,-7.17 -4.74,0 -9.1,1.14 -13.09,3.4 -3.98,2.27 -6.97,5.42 -8.96,9.47 -2.01,4.06 -3,8.28 -3,12.64"
           style="fill:#29242c;fill-opacity:1;fill-rule:nonzero;stroke:none"
           id="path940" /><path
           d="m 1497.1,1484.12 v 36.75 h -7.01 v 6.13 h 16.73 l 21.5,-38.1 v 31.97 h -6.94 v 6.13 h 20.11 v -6.13 h -7.21 v -43.38 h -7.6 l -23.52,41.83 v -35.2 h 7.02 v -6.13 h -20.09 v 6.13 h 7.01"
           style="fill:#29242c;fill-opacity:1;fill-rule:nonzero;stroke:none"
           id="path942" /><path
           d="m 1306.99,2690.7 c 0,-33.77 -27.38,-61.14 -61.14,-61.14 -33.79,0 -61.15,27.37 -61.15,61.14 0,33.78 27.36,61.15 61.15,61.15 33.76,0 61.14,-27.37 61.14,-61.15"
           style="fill:#f4f4f4;fill-opacity:1;fill-rule:nonzero;stroke:none"
           id="path944" /><path
           d="m 1114.97,3562.95 h 28.8828 v 689.016 H 1114.97 Z"
           style="fill:#656263;fill-opacity:1;fill-rule:nonzero;stroke:none"
           id="path946" /><path
           d="m 1358.74,3562.95 h 28.8711 v 689.016 H 1358.74 Z"
           style="fill:#656263;fill-opacity:1;fill-rule:nonzero;stroke:none"
           id="path948" /><path
           d="m 1254.32,2926.17 v 74.12 h -43.76 v -126.37 c 0,0 105.97,18.26 105.97,-65.44 0,-36.24 -29.37,-65.61 -65.61,-65.61 -9.19,0 -17.94,1.89 -25.9,5.32 -20.14,-4.93 -33.99,-25 -37.45,-38.99 18.27,-11.71 40.01,-18.5 63.35,-18.5 65.04,0 117.79,52.73 117.79,117.78 0,63.91 -50.92,115.9 -114.39,117.69"
           style="fill:#a5a3a4;fill-opacity:1;fill-rule:nonzero;stroke:none"
           id="path950" /><path
           d="m 1183.21,2971.95 h 91.418 v 166.992 h -91.418 z"
           style="fill:#7f7d7e;fill-opacity:1;fill-rule:nonzero;stroke:none"
           id="path952" /><path
           d="m 1183.21,2971.95 h 45.6992 v 128.32 H 1183.21 Z"
           style="fill:#4a4647;fill-opacity:1;fill-rule:nonzero;stroke:none"
           id="path954" /><path
           d="M 1440.92,3503.14 H 1048.54 V 3312.1 l 89.87,-211.83 h 208.56 l 93.95,211.83 v 191.04"
           style="fill:#f9ad16;fill-opacity:1;fill-rule:nonzero;stroke:none"
           id="path956" /><path
           d="m 1414.42,3503.14 h -339.4 v -181.18 l 77.73,-200.89 h 180.43 l 81.24,200.89 v 181.18"
           style="fill:#fddd10;fill-opacity:1;fill-rule:nonzero;stroke:none"
           id="path958" /><path
           d="m 1407.44,3304.64 -239.73,-183.57 h 124.59 l 59.22,45.35 55.92,138.22"
           style="fill:#29242c;fill-opacity:1;fill-rule:nonzero;stroke:none"
           id="path960" /><path
           d="m 1414.42,3489.05 -311.7,-238.69 28.49,-73.59 283.21,216.86 v 95.42"
           style="fill:#29242c;fill-opacity:1;fill-rule:nonzero;stroke:none"
           id="path962" /><path
           d="m 1166.36,3503.14 -91.34,-69.93 v -95.41 l 215.93,165.34 h -124.59"
           style="fill:#29242c;fill-opacity:1;fill-rule:nonzero;stroke:none"
           id="path964" /><path
           d="m 1296.89,3402.73 c 0,-28.82 -23.35,-52.17 -52.18,-52.17 -28.8,0 -52.17,23.35 -52.17,52.17 0,28.81 23.37,52.16 52.17,52.16 28.83,0 52.18,-23.35 52.18,-52.16"
           style="fill:#989696;fill-opacity:1;fill-rule:nonzero;stroke:none"
           id="path966" /><path
           d="m 1259.1,3382.63 c -11.09,-7.93 -26.52,-5.38 -34.47,5.7 -7.95,11.11 -5.41,26.54 5.7,34.5 11.12,7.94 26.53,5.38 34.48,-5.72 7.95,-11.1 5.39,-26.54 -5.71,-34.48"
           style="fill:#7f7d7e;fill-opacity:1;fill-rule:nonzero;stroke:none"
           id="path968" /><path
           d="m 1224.63,3388.33 v 0 c -3.14,4.38 -4.64,9.44 -4.63,14.44 0.02,7.68 3.6,15.24 10.33,20.06 4.36,3.12 9.39,4.62 14.36,4.62 7.7,0 15.29,-3.6 20.12,-10.34 l -40.18,-28.78"
           style="fill:#4a4647;fill-opacity:1;fill-rule:nonzero;stroke:none"
           id="path970" /><path
           d="m 1048.54,3495.23 h 392.383 v 91.418 H 1048.54 Z"
           style="fill:#7f7d7e;fill-opacity:1;fill-rule:nonzero;stroke:none"
           id="path972" /><path
           d="m 1440.92,3495.23 h -392.38 v 22.86 h 392.38 v -22.86"
           style="fill:#4a4647;fill-opacity:1;fill-rule:nonzero;stroke:none"
           id="path974" /><path
           d="m 1422.9,3562.95 h -360.83 c -3.99,0 -7.22,3.23 -7.22,7.21 0,3.99 3.23,7.22 7.22,7.22 h 360.83 c 3.99,0 7.23,-3.23 7.23,-7.22 0,-3.98 -3.24,-7.21 -7.23,-7.21"
           style="fill:#b1b0b0;fill-opacity:1;fill-rule:nonzero;stroke:none"
           id="path976" /></g></g></g></svg>
